<svg id="Layer_1" data-name="Layer 1" xmlns="http://www.w3.org/2000/svg" viewBox="0 0 711.42 756.06"><defs><style>.cls-1{fill:#242424;}</style></defs><title>formes</title><rect class="cls-1" x="182.71" y="137.71" width="50" height="20" rx="10" ry="10"/><rect class="cls-1" x="64.55" y="320.23" width="50" height="20" rx="10" ry="10"/><rect class="cls-1" x="155.71" y="320.23" width="50" height="20" rx="10" ry="10"/><rect class="cls-1" x="15.68" y="381.06" width="150" height="20" rx="10" ry="10"/><rect class="cls-1" x="103.32" y="502.74" width="150" height="20" rx="10" ry="10"/><rect class="cls-1" x="85.32" y="259.39" width="150" height="20" rx="10" ry="10"/><rect class="cls-1" x="178.32" y="198.55" width="150" height="20" rx="10" ry="10"/><rect class="cls-1" x="638.03" y="419.16" width="100" height="20" rx="10" ry="10" transform="translate(1223.26 759.39) rotate(180)"/><rect class="cls-1" x="787.29" y="419.16" width="50" height="20" rx="10" ry="10" transform="translate(1471.77 759.39) rotate(-180)"/><rect class="cls-1" x="625.06" y="358.32" width="50" height="20" rx="10" ry="10" transform="translate(1147.32 637.71) rotate(-180)"/><rect class="cls-1" x="638.77" y="540.84" width="120" height="20" rx="10" ry="10" transform="translate(1244.74 1002.74) rotate(180)"/><rect class="cls-1" x="180.26" y="358.11" width="50" height="20" rx="10" ry="10" transform="translate(257.71 637.29) rotate(-180)"/><rect class="cls-1" x="769.29" y="540.84" width="50" height="20" rx="10" ry="10" transform="translate(1435.77 1002.74) rotate(-180)"/><rect class="cls-1" x="164.48" y="601.68" width="50" height="20" rx="10" ry="10" transform="translate(226.16 1124.42) rotate(-180)"/><rect class="cls-1" x="685.52" y="358.32" width="100" height="20" rx="10" ry="10" transform="translate(1318.23 637.71) rotate(180)"/><rect class="cls-1" x="583.03" y="236.65" width="100" height="20" rx="10" ry="10" transform="translate(1113.26 394.35) rotate(180)"/><rect class="cls-1" x="518.03" y="297.48" width="230" height="20" rx="10" ry="10" transform="translate(1113.26 516.03) rotate(180)"/><rect class="cls-1" x="221.48" y="297.48" width="100" height="20" rx="10" ry="10" transform="translate(390.16 516.03) rotate(-180)"/><rect class="cls-1" x="375.39" y="778.26" width="100" height="20" rx="10" ry="10" transform="translate(697.97 1477.58) rotate(180)"/><rect class="cls-1" x="592.55" y="601.68" width="100" height="20" rx="10" ry="10" transform="translate(1132.29 1124.42) rotate(-180)"/><rect class="cls-1" x="300.61" y="721.35" width="150" height="20" rx="10" ry="10" transform="translate(598.42 1363.77) rotate(180)"/><rect class="cls-1" x="647.52" y="722.35" width="50" height="20" rx="10" ry="10" transform="translate(1192.23 1365.77) rotate(180)"/><rect class="cls-1" x="397.81" y="655.06" width="20" height="20" rx="10" ry="10" transform="translate(662.81 1231.19) rotate(180)"/><rect class="cls-1" x="703.18" y="601.68" width="20" height="20" rx="10" ry="10" transform="translate(1273.55 1124.42) rotate(-180)"/><rect class="cls-1" x="495.97" y="381.06" width="50" height="20" rx="10" ry="10"/><rect class="cls-1" x="555.08" y="381.06" width="20" height="20" rx="10" ry="10"/><rect class="cls-1" x="443.13" y="259.39" width="20" height="20" rx="10" ry="10"/><rect class="cls-1" y="258.39" width="20" height="20" rx="10" ry="10"/><rect class="cls-1" x="578.61" y="604.24" width="20" height="20" rx="10" ry="10"/><rect class="cls-1" x="116.68" y="624.42" width="20" height="20" rx="10" ry="10"/><rect class="cls-1" x="220.35" y="602.68" width="20" height="20" rx="10" ry="10" transform="translate(307.9 1126.42) rotate(-180)"/><rect class="cls-1" x="323.52" y="331.52" width="20" height="20" rx="10" ry="10" transform="translate(514.23 584.1) rotate(180)"/><rect class="cls-1" x="261.48" y="246.65" width="20" height="20" rx="10" ry="10" transform="translate(390.16 414.35) rotate(-180)"/><rect class="cls-1" x="336.13" y="540.84" width="20" height="20" rx="10" ry="10" transform="translate(539.45 1002.74) rotate(-180)"/><rect class="cls-1" x="304.94" y="82.81" width="100" height="20" rx="10" ry="10"/><rect class="cls-1" x="428.74" y="181.74" width="20" height="20" rx="10" ry="10" transform="translate(724.68 284.55) rotate(-180)"/><rect class="cls-1" x="569.39" y="181.74" width="20" height="20" rx="10" ry="10" transform="translate(1005.97 284.55) rotate(180)"/><rect class="cls-1" x="326.77" y="480" width="20" height="20" rx="10" ry="10" transform="translate(520.74 881.06) rotate(180)"/><rect class="cls-1" x="279.48" y="419.16" width="20" height="20" rx="10" ry="10" transform="translate(426.16 759.39) rotate(180)"/><rect class="cls-1" x="333.6" y="679.32" width="50" height="20" rx="10" ry="10"/><rect class="cls-1" x="420.13" y="679.32" width="50" height="20" rx="10" ry="10"/><rect class="cls-1" x="337.19" y="736.06" width="20" height="20" rx="10" ry="10"/><rect class="cls-1" x="459.52" y="722.35" width="20" height="20" rx="10" ry="10" transform="translate(786.23 1365.77) rotate(-180)"/><rect class="cls-1" x="424.06" y="236.65" width="150" height="20" rx="10" ry="10" transform="translate(845.32 394.35) rotate(-180)"/><rect class="cls-1" x="534.9" y="141.52" width="50" height="20" rx="10" ry="10" transform="translate(558.61 -507.32) rotate(90)"/><rect class="cls-1" x="413.23" y="222.35" width="50" height="20" rx="10" ry="10" transform="translate(517.77 -304.81) rotate(90)"/><rect class="cls-1" x="413.23" y="313.52" width="50" height="20" rx="10" ry="10" transform="translate(608.94 -213.64) rotate(90)"/><rect class="cls-1" x="509.9" y="254.48" width="100" height="20" rx="10" ry="10" transform="translate(671.58 -394.35) rotate(90)"/><rect class="cls-1" x="545.74" y="311.13" width="150" height="20" rx="10" ry="10" transform="translate(789.06 -398.55) rotate(90)"/><rect class="cls-1" x="556.58" y="493.89" width="250" height="20" rx="10" ry="10" transform="translate(1032.66 -276.63) rotate(90)"/><rect class="cls-1" x="388.23" y="668.03" width="100" height="20" rx="10" ry="10" transform="translate(-392.61 1017.32) rotate(-90)"/><rect class="cls-1" x="413.23" y="753.29" width="50" height="20" rx="10" ry="10" transform="translate(-477.87 1102.58) rotate(-90)"/><rect class="cls-1" x="352.39" y="630.06" width="50" height="20" rx="10" ry="10" transform="translate(-415.48 918.52) rotate(-90)"/><rect class="cls-1" x="499.9" y="678.77" width="120" height="20" rx="10" ry="10" transform="translate(-281.68 1149.74) rotate(-90)"/><rect class="cls-1" x="595.74" y="737.29" width="50" height="20" rx="10" ry="10" transform="translate(-279.35 1269.1) rotate(-90)"/><rect class="cls-1" x="534.9" y="774.29" width="50" height="20" rx="10" ry="10" transform="translate(-377.19 1245.26) rotate(-90)"/><rect class="cls-1" x="595.74" y="169.48" width="50" height="20" rx="10" ry="10" transform="translate(288.45 701.29) rotate(-90)"/><rect class="cls-1" x="327.39" y="715.52" width="100" height="20" rx="10" ry="10" transform="translate(-500.94 1003.97) rotate(-90)"/><rect class="cls-1" x="205.71" y="613.03" width="100" height="20" rx="10" ry="10" transform="translate(-520.13 779.81) rotate(-90)"/><rect class="cls-1" x="201.55" y="613.03" width="230" height="20" rx="10" ry="10" transform="translate(-459.29 840.65) rotate(-90)"/><rect class="cls-1" x="631.58" y="678.77" width="100" height="20" rx="10" ry="10" transform="translate(-160 1271.42) rotate(-90)"/><rect class="cls-1" x="266.55" y="251.48" width="100" height="20" rx="10" ry="10" transform="translate(-97.74 479.1) rotate(-90)"/><rect class="cls-1" x="747.32" y="405.39" width="100" height="20" rx="10" ry="10" transform="translate(229.13 1113.77) rotate(-90)"/><rect class="cls-1" x="570.74" y="622.55" width="100" height="20" rx="10" ry="10" transform="translate(-164.61 1154.35) rotate(-90)"/><rect class="cls-1" x="666.42" y="543.03" width="150" height="20" rx="10" ry="10" transform="translate(35.58 1195.52) rotate(-90)"/><rect class="cls-1" x="665.42" y="355.61" width="150" height="20" rx="10" ry="10" transform="translate(222 1007.1) rotate(-90)"/><rect class="cls-1" x="716.42" y="652.52" width="50" height="20" rx="10" ry="10" transform="translate(-73.9 1305) rotate(-90)"/><rect class="cls-1" x="671.58" y="327.9" width="20" height="20" rx="10" ry="10" transform="translate(190.87 920.55) rotate(-90)"/><rect class="cls-1" x="610.74" y="693.18" width="20" height="20" rx="10" ry="10" transform="translate(-235.24 1224.98) rotate(-90)"/><rect class="cls-1" x="474.06" y="653.77" width="50" height="20" rx="10" ry="10" transform="translate(1010.03 65.77) rotate(90)"/><rect class="cls-1" x="449.06" y="765.52" width="100" height="20" rx="10" ry="10" transform="translate(1121.77 177.52) rotate(90)"/><rect class="cls-1" x="489.06" y="697.89" width="20" height="20" rx="10" ry="10" transform="translate(1054.15 109.89) rotate(90)"/><rect class="cls-1" x="367.39" y="585.94" width="20" height="20" rx="10" ry="10" transform="translate(820.52 119.61) rotate(90)"/><rect class="cls-1" x="220.32" y="662.55" width="20" height="20" rx="10" ry="10" transform="translate(750.06 343.29) rotate(90)"/><rect class="cls-1" x="245.71" y="385.13" width="20" height="20" rx="10" ry="10" transform="translate(498.03 40.48) rotate(90)"/><rect class="cls-1" x="611.74" y="209.35" width="20" height="20" rx="10" ry="10" transform="translate(249.58 742.16) rotate(-90)"/><rect class="cls-1" x="548.74" y="98.94" width="20" height="20" rx="10" ry="10" transform="translate(297 568.74) rotate(-90)"/><rect class="cls-1" x="395.1" y="236.13" width="20" height="20" rx="10" ry="10" transform="translate(6.16 552.29) rotate(-90)"/><rect class="cls-1" x="549.9" y="326.13" width="20" height="20" rx="10" ry="10" transform="translate(70.97 797.1) rotate(-90)"/><rect class="cls-1" x="150.81" y="487.74" width="100" height="20" rx="10" ry="10" transform="translate(545.74 198) rotate(90)"/><rect class="cls-1" x="190.81" y="418.74" width="20" height="20" rx="10" ry="10" transform="translate(-380.74 530.61) rotate(-90)"/><rect class="cls-1" x="189.81" y="556.39" width="20" height="20" rx="10" ry="10" transform="translate(-519.39 667.26) rotate(-90)"/><rect class="cls-1" x="489.06" y="316.77" width="20" height="20" rx="10" ry="10" transform="translate(19.48 726.9) rotate(-90)"/><rect class="cls-1" x="844.23" y="419.16" width="20" height="20" rx="10" ry="10" transform="translate(272.26 1184.45) rotate(-90)"/><rect class="cls-1" x="772.32" y="491.41" width="50" height="20" rx="10" ry="10" transform="translate(1145.93 -394.85) rotate(90)"/><rect class="cls-1" x="772.32" y="577.94" width="50" height="20" rx="10" ry="10" transform="translate(1232.45 -308.32) rotate(90)"/><rect class="cls-1" x="789.26" y="333.9" width="20" height="20" rx="10" ry="10" transform="translate(990.35 -554.29) rotate(90)"/><rect class="cls-1" x="731.42" y="449.52" width="20" height="20" rx="10" ry="10" transform="translate(129.1 1102) rotate(-90)"/><rect class="cls-1" x="829.81" y="540.84" width="20" height="20" rx="10" ry="10" transform="translate(136.16 1291.71) rotate(-90)"/><rect class="cls-1" x="180.71" y="479.06" width="150" height="20" rx="10" ry="10" transform="translate(-386.16 645.84) rotate(-90)"/></svg>