<svg id="Layer_1" data-name="Layer 1" xmlns="http://www.w3.org/2000/svg" xmlns:xlink="http://www.w3.org/1999/xlink" viewBox="0 0 467.63 600"><defs><style>.cls-1{fill:url(#linear-gradient);}.cls-2{fill:url(#linear-gradient-2);}.cls-3{fill:url(#linear-gradient-3);}.cls-4{fill:url(#linear-gradient-4);}</style><linearGradient id="linear-gradient" x1="140.29" y1="293.38" x2="314.4" y2="293.38" gradientUnits="userSpaceOnUse"><stop offset="0" stop-color="#46b707"/><stop offset="1" stop-color="#46b707" stop-opacity="0.9"/></linearGradient><linearGradient id="linear-gradient-2" x1="327.34" y1="463.53" x2="467.63" y2="463.53" gradientUnits="userSpaceOnUse"><stop offset="0" stop-color="#f17713" stop-opacity="0.9"/><stop offset="1" stop-color="#f17713"/></linearGradient><linearGradient id="linear-gradient-3" y1="300" x2="140.29" y2="300" gradientUnits="userSpaceOnUse"><stop offset="0" stop-color="#3444d7"/><stop offset="1" stop-color="#3444d7" stop-opacity="0.9"/></linearGradient><linearGradient id="linear-gradient-4" x1="467.63" y1="233.77" x2="93.83" y2="233.77" gradientUnits="userSpaceOnUse"><stop offset="0" stop-color="#a649b6"/><stop offset="1" stop-color="#a649b6" stop-opacity="0.9"/></linearGradient></defs><title>nt-logo</title><polygon class="cls-1" points="314.4 314.3 314.4 446.56 140.29 272.47 140.29 140.2 314.4 314.3"/><polygon class="cls-2" points="467.63 467.55 467.63 599.81 327.34 459.52 327.34 327.26 467.63 467.55"/><polygon class="cls-3" points="140.29 140.2 140.29 459.71 0 600 0 0 0.09 0 140.29 140.2"/><polygon class="cls-4" points="467.63 0 467.63 467.55 327.34 327.26 327.34 140.39 327.56 140.17 234 140.17 93.83 0 467.63 0"/></svg>